<?xml version="1.0" encoding="UTF-8"?>
<svg id="Layer_3" data-name="Layer 3" xmlns="http://www.w3.org/2000/svg" viewBox="0 0 193.68 210.26">
  <defs>
    <style>
      .cls-1 {
        fill: #fff;
      }
    </style>
  </defs>
  <g id="Layer_1" data-name="Layer 1">
    <g>
      <path class="cls-1" d="M172.63,147.14c0,23.19-18.87,42.06-42.06,42.06s-42.06-18.87-42.06-42.06v-3.86c-.02-.14-.02-.27-.02-.41V58.85c0-16.35-13.29-29.64-29.64-29.64s-29.63,13.29-29.63,29.64v126.33c0,2.22-1.8,4.03-4.03,4.03s-4.03-1.8-4.03-4.03V58.85c0-20.78,16.91-37.69,37.69-37.69s37.69,16.91,37.69,37.69v84.02c0,.09,0,.18-.02.26h0v4.01c0,18.76,15.27,34.04,34.04,34.04s34.04-15.27,34.04-34.04-15.27-34.04-34.04-34.04h-4.01v-8.02h4.01c23.19,0,42.06,18.87,42.06,42.07Z"/>
      <path class="cls-1" d="M151.46,147.14c0,11.52-9.37,20.89-20.89,20.89s-20.89-9.37-20.89-20.89v-4.01h0c-.02-.08-.02-.17-.02-.26V58.85c0-28.03-22.8-50.83-50.83-50.83S8.02,30.83,8.02,58.85v147.39c0,2.21-1.8,4.01-4.01,4.01s-4.01-1.8-4.01-4.01V58.85C0,26.4,26.4,0,58.85,0s58.85,26.4,58.85,58.85v84.02c0,.09,0,.18-.02.26h.02v4.01c0,7.09,5.78,12.87,12.87,12.87s12.87-5.78,12.87-12.87-5.78-12.87-12.87-12.87h-4.01v-8.02h4.01c11.52,0,20.89,9.37,20.89,20.89Z"/>
      <path class="cls-1" d="M134.83,70.88h-4.01v-8.02h4.01c4.74,0,8.6-3.86,8.6-8.6s-3.86-8.6-8.6-8.6h-4.01v-8.02h4.01c9.17,0,16.63,7.46,16.63,16.63s-7.46,16.63-16.63,16.63Z"/>
      <path class="cls-1" d="M193.68,147.14c0,34.8-28.32,63.11-63.11,63.11s-63.11-28.32-63.11-63.11v-4.01h0c-.02-.08-.02-.17-.02-.26V58.85c0-4.75-3.85-8.61-8.6-8.61s-8.6,3.86-8.6,8.61v105.16c0,2.21-1.8,4.01-4.01,4.01s-4.01-1.8-4.01-4.01V58.85c0-9.17,7.46-16.63,16.62-16.63s16.63,7.46,16.63,16.63v84.02c0,.09,0,.18-.02.26h.02v4.01c0,30.38,24.71,55.09,55.09,55.09s55.09-24.71,55.09-55.09-24.58-54.96-54.84-55.09h-4.26v-8.02h8.27c16.42,0,29.78-13.36,29.78-29.78s-13.36-29.78-29.78-29.78h-4.01v-8.02h4.01c20.85,0,37.8,16.96,37.8,37.8,0,14.59-8.31,27.29-20.46,33.59,24.2,8.83,41.52,32.08,41.52,59.3Z"/>
    </g>
  </g>
</svg>